<svg version="1.2" xmlns="http://www.w3.org/2000/svg" viewBox="0 0 350 85" width="350" height="85">
	<title>logo-svg</title>
	<style>
		.s0 { fill: #000000 } 
	</style>
	<g id="Layer">
		<path id="Layer" fill-rule="evenodd" class="s0" d="m66.4 2c53.7 0 61.4 0.2 63.4 1.6l2.2 1.5v36.7c0 20.2-0.4 37.2-0.8 37.8-2.1 3.2-5 3.4-65 3.4-55.7 0-60.1-0.1-62.1-1.8-2.1-1.7-2.1-2.3-2.2-38.6 0-33.4 0.1-37 1.7-38.7 1.6-1.8 4.1-1.9 62.8-1.9zm6 17.1c-1.6 1.8-4.9 4.1-7.4 5.2-2.5 1.1-7.7 5.1-11.7 8.8-5.2 5.1-9.2 7.9-14.8 10.4-9.3 4.3-16.8 8.6-16.1 9.2 0.3 0.3 4.3-1.3 8.8-3.5 4.6-2.3 10-4.8 12.1-5.6 4.4-1.8 16.3-11.9 17.2-14.6 0.4-1.2 2.9-2.6 7.2-3.9 8.5-2.7 8.7-2.7 8 0.9-0.8 3.8 0.3 4.4 5.4 3 2.2-0.6 4.3-0.9 4.6-0.6 0.3 0.3-1.3 2.6-3.6 5.1-2.2 2.4-4.1 4.8-4.1 5.2 0 0.4 1.2 1.7 2.6 2.8 1.4 1.1 2.9 3.6 3.3 5.5 0.5 2.7 1.3 3.6 3.6 4.2 16.3 4.2 22.6 5.4 22.2 4.4-0.3-0.7-3-4.9-6.1-9.4-3.1-4.6-5.6-8.9-5.6-9.6 0-0.7-1.1-2.3-2.4-3.5-1.4-1.3-3-4.5-3.6-7.2-1.5-6-2.5-6.7-5.4-4-1.2 1.2-2.5 2.1-2.9 2.1-0.4 0-1.6-1.8-2.7-4-2.5-4.9-4.6-5.1-8.6-0.9zm-41.9 35.7c-3.3 0.8-1.9 1 8.1 1.1 16.4 0.1 21.1 1.2 34 7.5l11 5.5 6.2-1.6c3.4-0.8 6.2-1.9 6.2-2.4 0-0.5-0.1-0.9-0.2-0.9-1.3 0-21.9-8.9-20.8-9 2.1 0 20.6 4.6 25.9 6.5 4.3 1.5 10.5 1.2 11.6-0.5 0.6-0.9-11.6-4.5-23.7-7.1-17.2-3.5-41.4-3.2-58.3 0.9z"/>
		<path id="Layer" fill-rule="evenodd" class="s0" d="m164 19.7c7.8 0.1 10.9 0.6 13.3 2 9.3 5.5 10.4 18.6 2.2 25.2l-2.6 2 4.9 7.3c2.6 4 5.2 7.9 5.6 8.5 0.5 1-0.5 1.3-4.1 1.3h-4.8l-5-8c-4.8-7.8-5.1-8.1-8.5-7.8l-3.5 0.3-1 15h-8l-0.3-22.4c-0.1-12.9 0.2-22.7 0.7-23 0.5-0.3 5.5-0.5 11.1-0.4zm2.2 8.3h-5.2v6.9c0 5.9 0.3 6.9 1.9 7.4 3.1 0.8 10.4-1 11.8-2.9 2-2.7 1.6-6.8-1-9.2-1.8-1.7-3.6-2.2-7.5-2.2z"/>
		<path id="Layer" fill-rule="evenodd" class="s0" d="m217.5 19c1.8 0 3.7 0.6 4.3 1.2 0.7 1 17.8 39 19.9 44.5 0.4 0.9-0.8 1.3-4.1 1.3-4.4 0-4.7-0.2-6.4-3.8-0.9-2-2.1-4-2.7-4.4-0.5-0.4-5.5-0.8-11-0.8-5.5 0-10.4 0.4-11 0.8-0.5 0.4-1.8 2.4-2.7 4.4-1.7 3.6-2 3.8-6.4 3.8-3.3 0-4.5-0.4-4.1-1.3 2.1-5.5 19.2-43.5 19.9-44.5 0.6-0.6 2.5-1.2 4.3-1.2zm0.6 13.7c-1.1-1.1-1.3-0.7-5.6 9.2l-3.4 8.1h16.8l-3.5-8.3c-1.9-4.5-3.9-8.6-4.3-9z"/>
		<path id="Layer" class="s0" d="m249 42.5v23.5h4.5 4.5v-12.2c0-7.3 0.4-11.8 0.9-11.3 0.5 0.6 3 6.1 5.7 12.2l4.7 11.3h4.1 4.1l4.9-11.6c2.7-6.3 5.3-11.7 5.8-12 0.4-0.3 0.8 4.9 0.8 11.5v12.1h4.5 4.5v-23.5-23.5h-3.9c-2.1 0-4.3 0.6-4.9 1.2-0.5 0.7-4.1 8.3-8 16.8-3.8 8.5-7.3 15.5-7.7 15.5-0.4 0-4-7-7.9-15.5-3.9-8.5-7.5-16.1-7.9-16.8-0.5-0.6-2.6-1.2-4.8-1.2h-3.9z"/>
		<path id="Layer" fill-rule="evenodd" class="s0" d="m318.7 19.3c11.5 0.5 15.3 2.1 19 7.7 3.1 4.5 3.1 11.5 0 16.1-3.2 4.8-7.9 6.9-15.4 6.9h-6.3v16h-9v-22.8c0-12.6 0.3-23.2 0.8-23.6 0.4-0.5 5.3-0.6 10.9-0.3zm2.2 8.7h-4.9v14h5.5c4.2 0 6-0.5 7.5-2 2.9-2.9 2.6-7.4-0.6-9.9-1.9-1.5-4.1-2.1-7.5-2.1z"/>
	</g>
</svg>